<?xml version="1.0" encoding="iso-8859-1"?>
<!-- Generator: Adobe Illustrator 19.0.0, SVG Export Plug-In . SVG Version: 6.00 Build 0)  -->
<svg version="1.1" id="Layer_1" xmlns="http://www.w3.org/2000/svg" xmlns:xlink="http://www.w3.org/1999/xlink" x="0px" y="0px"
	 viewBox="0 0 512.007 512.007" style="enable-background:new 0 0 512.007 512.007;" xml:space="preserve">
<g>
	<g>
		<g>
			<path d="M230.661,221.873h-0.094c-4.702,0-8.482,3.823-8.482,8.533s3.857,8.533,8.576,8.533c4.71,0,8.533-3.823,8.533-8.533
				S235.371,221.873,230.661,221.873z"/>
			<path d="M298.672,196.273c0-4.71-3.823-8.533-8.533-8.533H186.194l-15.693-78.473c-0.913-4.617-5.367-7.629-10.044-6.69
				c-4.617,0.922-7.612,5.419-6.69,10.035L187.9,283.279c0.811,4.053,4.378,6.861,8.363,6.861c0.546,0,1.118-0.051,1.681-0.171
				c4.617-0.922,7.62-5.419,6.69-10.035l-15.027-75.127h100.531C294.849,204.806,298.672,200.984,298.672,196.273z"/>
			<path d="M179.461,341.34h-0.094c-4.702,0-8.482,3.823-8.482,8.533s3.857,8.533,8.576,8.533c4.71,0,8.533-3.823,8.533-8.533
				S184.171,341.34,179.461,341.34z"/>
			<path d="M247.728,358.406h-0.094c-4.71,0-8.482,3.823-8.482,8.533s3.857,8.533,8.576,8.533c4.71,0,8.533-3.823,8.533-8.533
				S252.438,358.406,247.728,358.406z"/>
			<path d="M387.231,22.68c-0.06-0.051-0.077-0.128-0.128-0.179c-0.06-0.06-0.137-0.077-0.179-0.128
				C373.023,8.557,353.891,0.006,332.805,0.006c-20.19,0-39.194,8.201-53.316,21.837c-0.324,0.239-0.7,0.367-0.998,0.657
				c-0.256,0.256-0.358,0.589-0.572,0.862c-5.837,5.965-10.854,12.792-14.532,20.531c-2.022,4.258-0.205,9.352,4.053,11.375
				c4.25,2.022,9.344,0.213,11.366-4.053c1.724-3.618,3.9-6.929,6.263-10.078l17.57,17.57c1.664,1.664,3.849,2.5,6.033,2.5
				c2.176,0,4.361-0.836,6.033-2.5c3.328-3.337,3.328-8.738,0-12.066l-17.545-17.536c10.155-7.578,22.571-12.032,35.644-12.032
				c13.389,0,25.719,4.48,35.695,11.955l-17.596,17.613c-3.337,3.328-3.337,8.738,0,12.066c1.664,1.664,3.849,2.5,6.033,2.5
				c2.185,0,4.369-0.836,6.033-2.5l17.596-17.613c7.484,9.975,11.972,22.315,11.972,35.712c0,13.278-4.429,25.668-11.938,35.729
				l-17.63-17.63c-3.337-3.337-8.738-3.337-12.066,0c-3.337,3.336-3.337,8.738,0,12.066l17.562,17.562
				c-6.135,4.599-13.133,8.201-20.932,10.18c-4.565,1.152-7.33,5.794-6.17,10.368c0.981,3.866,4.454,6.434,8.26,6.434
				c0.7,0,1.399-0.085,2.108-0.265c13.739-3.49,25.762-10.59,35.268-20.07c0.034-0.034,0.077-0.043,0.111-0.077
				c0.034-0.034,0.043-0.077,0.077-0.111c13.961-14.029,22.417-33.28,22.417-54.187C409.605,55.704,401.046,36.58,387.231,22.68z"/>
			<path d="M247.728,307.206h-0.094c-4.71,0-8.482,3.823-8.482,8.533s3.857,8.533,8.576,8.533c4.71,0,8.533-3.823,8.533-8.533
				S252.438,307.206,247.728,307.206z"/>
			<path d="M341.338,264.54c0-39.134-5.453-61.824-10.257-81.843c-3.652-15.198-6.81-28.331-6.81-46.157
				c0-23.245,16.009-55.595,16.162-55.919c1.323-2.645,1.178-5.786-0.375-8.303c-1.553-2.509-4.301-4.045-7.253-4.045H160.261
				L144.807,6.466c-1.135-4.565-5.769-7.364-10.334-6.204c-4.582,1.143-7.364,5.777-6.212,10.351l14.413,57.66h-31.735
				c-2.961,0-5.7,1.536-7.262,4.045c-1.553,2.517-1.698,5.658-0.375,8.303c0.171,0.324,16.171,32.606,16.171,55.919
				c0,17.826-3.157,30.959-6.81,46.157c-4.813,20.019-10.257,42.709-10.257,81.843c0,97.826,47.13,172.425,110.933,178.594v51.806
				h-68.267c-4.719,0-8.533,3.823-8.533,8.533s3.814,8.533,8.533,8.533h153.6c4.71,0,8.533-3.823,8.533-8.533
				s-3.823-8.533-8.533-8.533h-68.267v-51.806C294.2,436.964,341.338,362.366,341.338,264.54z M221.872,426.673
				c-58.377,0-102.4-69.7-102.4-162.133c0-26.078,2.577-44.45,5.7-59.733h19.9c4.71,0,8.533-3.823,8.533-8.533
				s-3.823-8.533-8.533-8.533h-16.06c0.085-0.35,0.162-0.708,0.247-1.058c3.746-15.573,7.279-30.293,7.279-50.142
				c0-17.604-7.168-38.315-12.45-51.2h195.567c-5.282,12.885-12.45,33.596-12.45,51.2c0,19.849,3.533,34.569,7.27,50.142
				c4.591,19.098,9.796,40.738,9.796,77.858C324.272,356.973,280.248,426.673,221.872,426.673z"/>
			<path d="M290.394,264.54c0-4.71-3.823-8.533-8.533-8.533h-0.094c-4.71,0-8.482,3.823-8.482,8.533c0,4.71,3.857,8.533,8.576,8.533
				C286.571,273.073,290.394,269.25,290.394,264.54z"/>
		</g>
	</g>
</g>
<g>
</g>
<g>
</g>
<g>
</g>
<g>
</g>
<g>
</g>
<g>
</g>
<g>
</g>
<g>
</g>
<g>
</g>
<g>
</g>
<g>
</g>
<g>
</g>
<g>
</g>
<g>
</g>
<g>
</g>
</svg>
