<?xml version="1.0" encoding="iso-8859-1"?>
<!-- Generator: Adobe Illustrator 18.0.0, SVG Export Plug-In . SVG Version: 6.00 Build 0)  -->
<!DOCTYPE svg PUBLIC "-//W3C//DTD SVG 1.1//EN" "http://www.w3.org/Graphics/SVG/1.1/DTD/svg11.dtd">
<svg version="1.1" id="Capa_1" xmlns="http://www.w3.org/2000/svg" xmlns:xlink="http://www.w3.org/1999/xlink" x="0px" y="0px"
	 viewBox="0 0 267.36 267.36" style="enable-background:new 0 0 267.36 267.36;" xml:space="preserve">
<g>
	<path d="M206.891,7.806c-2.299-6.253-8.765-9.532-15.009-6.88c-0.752,0.319-0.74,1-0.399,1.536
		c-0.012,0.312-0.047,0.625-0.059,0.938c-11.661,19.622-22.666,40.837-32.474,62.075c-0.19-0.198-0.313-0.436-0.621-0.555
		c-44.827-17.208-94.01,16.422-97.465,63.111c-0.963,0.831-0.587,2.785,1.065,2.971c3.264,0.367,6.557,0.646,9.84,0.956
		c-0.044,0.155-0.169,0.259-0.15,0.448c4.216,42.635,12.762,85.252,19.833,127.495c0.056,0.334,0.174,0.599,0.319,0.828
		c-0.003,0.513-0.007,1.026-0.011,1.539c-0.21,1.236,0.315,2.39,1.58,2.783c10.366,3.216,21.991,2.189,32.725,2.021
		c12.247-0.192,24.617-0.513,36.744-2.314c0.682-0.101,1.103-0.494,1.335-0.991c1.091,0.236,2.239-0.197,2.451-1.616
		c6.275-42.15,14.973-84.632,18.365-127.123c4.089-0.047,8.175-0.096,12.24-0.149c1.909-0.025,2.358-2.212,1.368-3.299
		c1.228,0.089,2.445-0.618,2.273-2.167c-2.296-20.652-11.231-40.63-28.103-53.205c13.347-20.327,24.243-42.533,33.705-64.674
		c0.165-0.387,0.161-0.754,0.091-1.099c0.029-0.042,0.08-0.054,0.108-0.097c0.209-0.323,0.219-0.693,0.154-1.054
		C207.032,8.889,207.106,8.389,206.891,7.806z M166.758,62.286c0.825,3.02,2.505,5.715,5.162,7.327
		c-4.253,7.532-8.533,15.062-12.779,22.658c-1.296-0.067-2.645-0.384-3.904-0.967c-0.943-0.437-2.24-1.233-3.492-2.212
		C156.896,80.441,161.909,71.449,166.758,62.286z M149.369,86.811c-1.284-1.547-2.047-3.258-1.338-4.853
		c1.243-0.98,2.623-1.355,4.137-1.522C151.248,82.559,150.256,84.697,149.369,86.811z M162.136,260.5
		c-12.893,0.276-25.749,1.501-38.658,1.721c-9.304,0.159-21.648,2.689-27.784-4.814c-1.741-11.232-3.402-22.523-5.073-33.825
		c25.639,0.995,51.186-2.181,76.841-0.895c0.075,0.004,0.126-0.031,0.198-0.032C165.882,235.312,164.107,247.954,162.136,260.5z
		 M176.708,163.583c-0.154-0.032-0.283-0.098-0.457-0.102c-31.561-0.701-63.633-1.749-95.157,0.308
		c-1.92-10.576-4.009-21.103-6.361-31.544c35.511,3.167,71.994,3.207,107.694,2.813C180.28,144.494,178.418,154.017,176.708,163.583
		z M196.241,129.412c0.066,0.686,0.383,1.196,0.806,1.561c-44.495-1.282-89.016-2.215-133.52-3.311
		c9.365-46.135,48.399-69.409,93.85-59.289c0.108,0.024,0.167-0.048,0.268-0.04c-1.438,3.151-2.935,6.304-4.313,9.448
		c-1.32-0.04-2.579,0.236-3.727,0.784c-0.181-0.127-0.405-0.19-0.695-0.094c-3.418,1.143-5.116,4.483-4.124,8.003
		c1.211,4.296,5.77,7.304,9.627,8.949c3.814,1.627,8.407,1.959,11.701-0.963c2.733-2.424,3.8-6.293,1.397-9.259
		c-0.132-0.163-0.32-0.222-0.503-0.282c1.439-2.009,2.702-4.157,4.085-6.211C184.572,93.1,194.321,109.307,196.241,129.412z
		 M173.849,66.164c-1.479-1.848-2.885-3.556-3.586-5.983c-0.35-1.211-0.489-2.436-0.518-3.659
		c4.194-8.11,8.279-16.313,12.156-24.561c0.028,4.024,2.371,8.61,4.58,11.393C182.36,51.005,178.118,58.585,173.849,66.164z
		 M188.713,39.199c-1.176-1.624-2.18-3.325-2.793-5.318c-0.646-2.1-0.597-4.434-1.564-6.406c-0.058-0.118-0.177-0.101-0.269-0.154
		c2.946-6.386,5.806-12.776,8.506-19.121c0.814,1.416,1.925,2.678,3.411,3.534c1.651,0.952,3.819,1.432,5.844,1.238
		C197.738,21.903,193.281,30.587,188.713,39.199z M198.257,8.23c-2.017-0.808-3.138-2.464-3.769-4.369
		c0.094-0.224,0.197-0.451,0.295-0.676c3.334,0.188,6.566,2.082,7.955,5.12C201.268,8.606,199.832,8.861,198.257,8.23z"/>
</g>
<g>
</g>
<g>
</g>
<g>
</g>
<g>
</g>
<g>
</g>
<g>
</g>
<g>
</g>
<g>
</g>
<g>
</g>
<g>
</g>
<g>
</g>
<g>
</g>
<g>
</g>
<g>
</g>
<g>
</g>
</svg>
