<?xml version="1.0" encoding="iso-8859-1"?>
<!-- Generator: Adobe Illustrator 19.0.0, SVG Export Plug-In . SVG Version: 6.00 Build 0)  -->
<svg version="1.1" id="Layer_1" xmlns="http://www.w3.org/2000/svg" xmlns:xlink="http://www.w3.org/1999/xlink" x="0px" y="0px"
	 viewBox="0 0 457.454 457.454" style="enable-background:new 0 0 457.454 457.454;" xml:space="preserve">
<g transform="translate(0 -540.36)">
	<g>
		<g>
			<path d="M272.872,837.314c-3-2.9-7.7-2.9-10.6,0l-38.6,38.4c-2.9,2.9-3,7.7-0.1,10.6l38.6,39.5c1.4,1.5,3.4,2.3,5.4,2.3
				s3.9-0.8,5.4-2.3l38.6-39.5c2.9-3,2.8-7.7-0.1-10.6L272.872,837.314z M267.572,909.914l-28.1-28.7l28.1-27.9l28.1,27.9
				L267.572,909.914z"/>
			<path d="M171.072,875.714c-1.4-1.4-3.3-2.2-5.3-2.2c-0.1,0-0.1,0-0.1,0c-2,0.1-3.9,0.9-5.3,2.3l-38.6,39.5
				c-2.9,3-2.8,7.7,0.1,10.6l38.6,38.4c1.5,1.5,3.4,2.2,5.3,2.2v0c1.8,0,3.7-0.7,5.2-2.2l39.8-38.4c1.5-1.4,2.3-3.3,2.3-5.3
				s-0.8-4-2.2-5.4L171.072,875.714z M165.772,948.414l-28.1-27.9l28.1-28.8l29,28.8L165.772,948.414z"/>
			<path d="M393.972,717.814L393.972,717.814l-35.1,0c-1.6,0-3.1,0.2-4.7,0.5v-4.6c25.9-27.7,30.1-69,9.9-101.6c0,0,0-0.1-0.1-0.1
				c-17.2-26.9-55.5-48.6-94.4-38.5c-15.8-22.2-42-34.7-69.8-33c-26.8,1.6-49.8,16.4-62.6,40c-36.1-7.9-73,8.3-91.4,41
				c-19.8,32.2-14.7,74.4,12.5,102.9v249.6c0,12.9,10.9,23.8,23.9,23.8h248.1c12.3,0,23.9-11.6,23.9-23.8v-85.9
				c1.6,0.3,3.1,0.5,4.7,0.5h35.1c16.1,0,29.7-13,29.7-28.4v-112.8C423.672,731.614,409.772,717.814,393.972,717.814z
				 M339.272,710.714v263.4c-0.1,3.9-4.9,8.7-9,8.7v0h-248.1c-5.1,0-8.9-4.6-8.9-8.8v-287.8h13.3c6.9,12.3,19.3,21.4,33.7,23.3
				c2.1,0.3,4.3,0.4,6.4,0.4c14.8,0,28.8-6.8,37.7-18.1c6.7,7.5,15.6,13.2,26.2,16.3c4.8,1.5,9.8,2.2,14.7,2.2
				c8.1,0,16.3-1.9,23.6-5.5c8.8,12.8,23.6,20.2,38.7,20.2c6.7,0,13.4-1.5,19.7-4.5c11.5-5.4,20.1-14.7,24.2-26.1
				c1-2.7,1.6-5.4,2.1-8.1h25.7V710.714z M346.672,671.214h-33.4c-0.7-4-2-8-3.8-11.9c-1.8-3.7-6.2-5.3-10-3.6s-5.3,6.2-3.6,10
				c3.6,7.6,4.1,16,1.4,23.5c-2.8,7.7-8.6,13.9-16.5,17.6c-0.1,0-0.1,0.1-0.2,0.1c-13.6,6.8-30.7,1.9-39.3-10.5
				c2.9-2.6,5.6-5.5,7.8-8.8c2.4-3.4,1.5-8.1-1.9-10.4c-3.4-2.4-8.1-1.5-10.4,1.9c-9,12.9-27,19.2-41.9,14.6h-0.1
				c-16.6-4.9-27.6-18.3-28.6-35.1c-0.2-4.1-3.8-7.3-7.9-7c-4.1,0.2-7.3,3.8-7,7.9c0.4,6.6,1.9,12.7,4.3,18.4
				c-6.1,11.7-19.5,18.6-33.3,16.7c-10.7-1.4-19.8-8.7-23.9-18.4c-0.1-0.3-0.2-0.5-0.3-0.8c-1.1-2.8-1.8-5.7-2-8.8
				c-0.3-4.1-3.8-7.3-8-7c-4.1,0.3-7.3,3.9-7,8c0.1,1.2,0.2,2.4,0.4,3.5h-15.6c-4.1,0-7.5,3.4-7.5,7.5v20.8
				c-12.7-21.9-13-48.8,0.2-70.1l0,0c0.1-0.1,0.1-0.2,0.2-0.3c15.9-28.5,48.9-41.8,80.3-32.5c3.6,1.1,7.4-0.7,9-4.1
				c9.9-22,29.1-35.5,52.7-36.9c24.2-1.5,47,10.3,59.3,30.7c1.8,3,5.5,4.4,8.8,3.2c33.5-11.4,67.5,7.2,82.5,30.6
				c13.1,21.2,13.7,46.8,2.8,67.9v-9.2C354.172,674.614,350.772,671.214,346.672,671.214z M408.672,860.214L408.672,860.214
				c0,7.2-6.9,13.4-14.7,13.4h-35.1c-1.3,0-2.9-0.4-4.7-1.2v-138.2c1.6-0.9,3.2-1.4,4.7-1.4h35.1c7.6,0,14.7,7.1,14.7,14.6V860.214z
				"/>
		</g>
	</g>
</g>
<g>
</g>
<g>
</g>
<g>
</g>
<g>
</g>
<g>
</g>
<g>
</g>
<g>
</g>
<g>
</g>
<g>
</g>
<g>
</g>
<g>
</g>
<g>
</g>
<g>
</g>
<g>
</g>
<g>
</g>
</svg>
