<?xml version="1.0" encoding="iso-8859-1"?>
<!-- Generator: Adobe Illustrator 19.0.0, SVG Export Plug-In . SVG Version: 6.00 Build 0)  -->
<svg version="1.1" id="Layer_1" xmlns="http://www.w3.org/2000/svg" xmlns:xlink="http://www.w3.org/1999/xlink" x="0px" y="0px"
	 viewBox="0 0 512 512" style="enable-background:new 0 0 512 512;" xml:space="preserve">
<g>
	<g>
		<path d="M389.653,368.495c32.6-4.361,57.831-32.335,57.831-66.108c0-33.689-25.104-61.608-57.585-66.077v-10.703
			c0-5.633-4.566-10.199-10.199-10.199H98.175c-5.633,0-10.199,4.566-10.199,10.199v134.364c0,56.436,31.135,105.73,77.124,131.63
			H74.715c-5.633,0-10.199,4.566-10.199,10.199c0,5.633,4.566,10.199,10.199,10.199h326.312c5.633,0,10.199-4.566,10.199-10.199
			c0-5.633-4.566-10.199-10.199-10.199h-88.253C356.434,467.014,386.698,421.344,389.653,368.495z M389.899,256.977
			c21.181,4.253,37.186,22.996,37.186,45.41c0,22.415-16.006,41.157-37.186,45.411V256.977z M238.938,490.536
			c-71.993,0-130.563-58.57-130.563-130.563v-81.509h102.838c5.633,0,10.199-4.566,10.199-10.199
			c0-5.633-4.566-10.199-10.199-10.199H108.375v-22.257h261.126v124.165C369.501,431.965,310.931,490.536,238.938,490.536z"/>
	</g>
</g>
<g>
	<g>
		<path d="M263.465,258.064h-14.93c-5.633,0-10.199,4.566-10.199,10.199c0,5.633,4.566,10.199,10.199,10.199h14.93
			c5.633,0,10.199-4.566,10.199-10.199C273.664,262.63,269.098,258.064,263.465,258.064z"/>
	</g>
</g>
<g>
	<g>
		<path d="M265.578,47.512c-5.633,0-10.199,4.566-10.199,10.199c0,5.633,4.566,10.199,10.199,10.199
			c17.379,0,31.519,14.139,31.519,31.519c0,17.379-14.139,31.519-31.519,31.519c-28.627,0-51.917,23.29-51.917,51.917
			c0,5.633,4.566,10.199,10.199,10.199c5.633,0,10.199-4.566,10.199-10.199c0-17.379,14.139-31.519,31.519-31.519
			c28.627,0,51.917-23.29,51.917-51.917C317.495,70.802,294.205,47.512,265.578,47.512z"/>
	</g>
</g>
<g>
	<g>
		<path d="M227.336,83.436c-17.379,0-31.519-14.139-31.519-31.519s14.139-31.519,31.519-31.519c5.633,0,10.199-4.566,10.199-10.199
			C237.535,4.566,232.969,0,227.336,0c-28.627,0-51.917,23.29-51.917,51.917c0.001,28.627,23.291,51.917,51.917,51.917
			c5.633,0,10.199-4.566,10.199-10.199C237.535,88.002,232.969,83.436,227.336,83.436z"/>
	</g>
</g>
<g>
</g>
<g>
</g>
<g>
</g>
<g>
</g>
<g>
</g>
<g>
</g>
<g>
</g>
<g>
</g>
<g>
</g>
<g>
</g>
<g>
</g>
<g>
</g>
<g>
</g>
<g>
</g>
<g>
</g>
</svg>
