<?xml version="1.0" encoding="iso-8859-1"?>
<!-- Generator: Adobe Illustrator 19.0.0, SVG Export Plug-In . SVG Version: 6.00 Build 0)  -->
<svg version="1.1" id="Layer_1" xmlns="http://www.w3.org/2000/svg" xmlns:xlink="http://www.w3.org/1999/xlink" x="0px" y="0px"
	 viewBox="0 0 511.999 511.999" style="enable-background:new 0 0 511.999 511.999;" xml:space="preserve">
<g>
	<g>
		<path d="M453.287,125.766c-17.905-22.141-42.19-38.483-69.194-46.795C359.986,30.715,310.786,0,256.299,0
			c-29.308,0-57.478,8.814-81.465,25.49c-20.588,14.313-36.868,33.51-47.54,55.926c-26.904,8.415-51.084,24.822-68.872,46.963
			c-20.274,25.236-31.44,56.992-31.44,89.422c0,29.45,8.893,57.733,25.717,81.792c13.737,19.64,31.919,35.308,53.089,45.919v55.285
			c0,5.845,4.738,10.583,10.583,10.583h277.281c5.845,0,10.583-4.738,10.583-10.583v-56.572
			c48.856-23.612,80.783-73.594,80.783-128.677C485.017,182.953,473.748,151.068,453.287,125.766z"/>
	</g>
</g>
<g>
	<g>
		<path d="M393.651,451.284H116.371c-5.845,0-10.583,4.738-10.583,10.583v15.125c0,19.334,15.673,35.006,35.006,35.006h228.434
			c19.334,0,35.006-15.673,35.006-35.006v-15.125C404.234,456.022,399.496,451.284,393.651,451.284z"/>
	</g>
</g>
<g>
</g>
<g>
</g>
<g>
</g>
<g>
</g>
<g>
</g>
<g>
</g>
<g>
</g>
<g>
</g>
<g>
</g>
<g>
</g>
<g>
</g>
<g>
</g>
<g>
</g>
<g>
</g>
<g>
</g>
</svg>
