<?xml version="1.0" ?><svg width="64px" height="64px" viewBox="0 0 64 64" xmlns="http://www.w3.org/2000/svg"><title/><g data-name="Layer 14" id="Layer_14"><path d="M41,8a.988.988,0,0,0-.482.124l-40,22a.968.968,0,0,0-.147.115,1.118,1.118,0,0,0-.093.074,1,1,0,0,0-.2.294c-.005.012-.005.026-.01.039a1.011,1.011,0,0,0-.064.318c0,.013-.007.023-.007.036V55a1,1,0,0,0,1,1H63a1,1,0,0,0,1-1V31A23.026,23.026,0,0,0,41,8Zm.254,2A21.028,21.028,0,0,1,61.977,30H59.766a11.112,11.112,0,0,0-5.442-6.651,11.293,11.293,0,0,0-11.069-8.857c-.318,0-.644.016-.984.049l-.011-.022a9.569,9.569,0,0,0-2.58-3.652Zm10.79,16.7-1.466-.694-.239-1.554a7.151,7.151,0,0,0-7.084-5.963,7.97,7.97,0,0,0-1.083.091l-2.282.335-1.005-2a7.283,7.283,0,0,0-3.837-3.329l2.942-1.471c1.224.722,1.759,1.815,2.473,3.274l.333.674a1,1,0,0,0,1.047.539,9.125,9.125,0,0,1,1.412-.118,9.257,9.257,0,0,1,9.185,7.676,1,1,0,0,0,.56.752A9.171,9.171,0,0,1,57.678,30H55.41A7.029,7.029,0,0,0,52.044,26.705ZM32.148,15.01A5.839,5.839,0,0,1,37.1,17.822l1.328,2.642a1,1,0,0,0,1.039.54l2.984-.439a6.164,6.164,0,0,1,.8-.071,5.138,5.138,0,0,1,5.107,4.265l.32,2.081a1,1,0,0,0,.56.752l1.947.921A5.137,5.137,0,0,1,53.038,30H4.894ZM2,44H58v2H2Zm56-2H2V36H58ZM2,54V48H58v6Zm60,0H60V35a1,1,0,0,0-1-1H2V32H62Z"/><path d="M36,20.142V18a1,1,0,0,0-2,0v2.142a4,4,0,1,0,2,0ZM35,26a1.994,1.994,0,0,1-1-3.722V23a1,1,0,0,0,2,0v-.722A1.994,1.994,0,0,1,35,26Z"/></g></svg>