<svg xmlns="http://www.w3.org/2000/svg" version="1.1" xmlns:xlink="http://www.w3.org/1999/xlink" xmlns:svgjs="http://svgjs.com/svgjs" width="1440" height="560" preserveAspectRatio="none" viewBox="0 0 1440 560"><g mask="url(&quot;#SvgjsMask1030&quot;)" fill="none"><rect width="1440" height="560" x="0" y="0" fill="rgba(45, 45, 45, 1)"></rect><path d="M0,610.556C110.935,585.264,154.808,451.249,248.651,386.908C338.314,325.433,491.161,343.799,534.493,244.095C578.006,143.974,482.073,38.608,444.584,-63.921C415.072,-144.633,380.044,-217.963,338.117,-292.98C284.86,-388.269,259.808,-508.545,165.428,-563.397C65.478,-621.486,-71.602,-645.178,-173.3,-590.207C-275.125,-535.167,-284.459,-395.098,-336.862,-291.892C-375.53,-215.736,-409.889,-142.998,-440.797,-63.377C-481.529,41.551,-567.448,139.171,-547.176,249.887C-526.103,364.974,-431.712,455.361,-334.024,519.752C-235.696,584.565,-114.821,636.734,0,610.556" fill="#1d1d1d"></path><path d="M1440 991.6669999999999C1538.319 986.9110000000001 1634.57 1037.874 1728.781 1009.352 1838.825 976.037 1969.52 927.783 2008.4099999999999 819.5840000000001 2047.646 710.422 1962.6570000000002 597.41 1914.83 491.73 1878.28 410.96799999999996 1809.421 355.404 1763.909 279.331 1705.382 181.502 1711.115 34.01999999999998 1609.77-18.18399999999997 1510.395-69.37300000000005 1389.187-8.23599999999999 1285.18 32.73000000000002 1188.221 70.92000000000002 1102.452 129.62599999999998 1034.319 208.476 966.254 287.247 894.575 377.858 897.031 481.933 899.423 583.295 1007.3 646.187 1046.851 739.545 1088.091 836.889 1043.695 981.1179999999999 1132.687 1038.188 1221.702 1095.272 1334.378 996.777 1440 991.6669999999999" fill="#3d3d3d"></path></g><defs><mask id="SvgjsMask1030"><rect width="1440" height="560" fill="#ffffff"></rect></mask></defs></svg>