<?xml version="1.0" encoding="iso-8859-1"?>
<!-- Generator: Adobe Illustrator 17.1.0, SVG Export Plug-In . SVG Version: 6.00 Build 0)  -->
<!DOCTYPE svg PUBLIC "-//W3C//DTD SVG 1.1//EN" "http://www.w3.org/Graphics/SVG/1.1/DTD/svg11.dtd">
<svg version="1.1" id="Capa_1" xmlns="http://www.w3.org/2000/svg" xmlns:xlink="http://www.w3.org/1999/xlink" x="0px" y="0px"
	 viewBox="0 0 349.731 349.731" style="enable-background:new 0 0 349.731 349.731;" xml:space="preserve">
<path d="M155.892,263.363h1.101c4.418,0,8,3.582,8,8s-3.582,8-8,8h-1.101c-4.418,0-8-3.582-8-8S151.473,263.363,155.892,263.363z
	 M105.639,103.855c-2.949,3.29-2.673,8.347,0.616,11.297c1.527,1.37,3.436,2.043,5.337,2.043c2.194,0,4.379-0.897,5.959-2.66
	c11.424-12.742,9.637-35.417,0.799-48.601c-3.901-5.819-5.59-14.564-4.202-21.761c0.836-4.338-2.002-8.533-6.341-9.37
	c-4.338-0.838-8.533,2.002-9.37,6.34c-2.167,11.239,0.432,24.468,6.623,33.7C110.695,83.249,110.987,97.89,105.639,103.855z
	 M69.284,103.854c-2.95,3.29-2.674,8.347,0.615,11.297c1.528,1.37,3.436,2.044,5.338,2.044c2.194,0,4.379-0.897,5.959-2.659
	c11.425-12.742,9.639-35.417,0.8-48.602c-3.901-5.817-5.589-14.561-4.2-21.759c0.837-4.338-2-8.534-6.339-9.371
	c-4.34-0.836-8.534,2-9.371,6.339c-2.17,11.242,0.43,24.471,6.622,33.702C74.341,83.249,74.632,97.889,69.284,103.854z
	 M187.423,250.546h1.103c4.418,0,8-3.582,8-8s-3.582-8-8-8h-1.103c-4.418,0-8,3.582-8,8S183.005,250.546,187.423,250.546z
	 M56.836,227.557c0-4.418-3.582-8-8-8h-1.103c-4.418,0-8,3.582-8,8s3.582,8,8,8h1.103C53.255,235.557,56.836,231.975,56.836,227.557
	z M146.849,229.323h1.103c4.418,0,8-3.582,8-8s-3.582-8-8-8h-1.103c-4.418,0-8,3.582-8,8S142.43,229.323,146.849,229.323z
	 M242.211,328.926H8c-4.418,0-8,3.582-8,8s3.582,8,8,8h234.211c4.418,0,8-3.582,8-8S246.629,328.926,242.211,328.926z
	 M347.596,7.364c-1.515-1.632-3.64-2.559-5.865-2.559H155.808c-2.226,0-4.351,0.927-5.865,2.559
	c-1.514,1.632-2.279,3.821-2.113,6.04l8.02,106.739c0.331,4.406,4.173,7.704,8.577,7.378c4.406-0.331,7.709-4.171,7.378-8.577
	l-2.243-29.855c19.86-12.18,55.154-8.792,75.539,3.173c13.414,7.87,31.542,12.423,49.734,12.491c0.011,0,0.021,0,0.031,0
	c4.404,0,7.982-3.562,7.999-7.97c0.017-4.418-3.552-8.013-7.97-8.03c-15.224-0.057-30.813-3.904-41.697-10.29
	c-22.794-13.38-59.249-17.93-84.937-6.683l-3.83-50.976h168.676l-16.956,225.715H259.05c-4.418,0-8,3.582-8,8c0,4.418,3.582,8,8,8
	h56.523v17.619h-80.074c-4.418,0-8,3.582-8,8s3.582,8,8,8h88.074c4.418,0,8-3.582,8-8V254.82l18.135-241.416
	C349.875,11.184,349.109,8.996,347.596,7.364z M1.503,190.78v-38.535c0-4.418,3.582-8,8-8h23.572L2.564,91.057
	c-2.198-3.833-0.874-8.722,2.959-10.92c3.831-2.199,8.721-0.874,10.92,2.958l35.078,61.15h189.188c4.418,0,8,3.582,8,8v38.535
	c0,68.156-55.449,123.605-123.604,123.605C56.951,314.385,1.503,258.936,1.503,190.78z M17.503,190.78
	c0,59.333,48.27,107.605,107.601,107.605c59.333,0,107.604-48.271,107.604-107.605v-30.535H60.699l31.961,55.716
	c11.418-2.642,23.567,2.329,29.704,12.956l7.996,13.847c7.517,13.022,3.04,29.731-9.979,37.249
	c-13.024,7.518-29.735,3.04-37.251-9.979l-7.994-13.848c-6.129-10.617-4.283-23.687,3.668-32.227l-36.549-63.714h-24.75V190.78z
	 M88.991,248.187l7.994,13.848c3.106,5.38,10.013,7.231,15.395,4.123c5.379-3.106,7.229-10.012,4.123-15.393l-7.995-13.845
	c-2.981-5.161-9.702-7.113-14.978-4.35c-0.125,0.065-0.252,0.133-0.375,0.205c-0.008,0.005-0.016,0.009-0.024,0.014
	c-0.003,0.002-0.007,0.004-0.01,0.006c0,0-0.001,0-0.001,0.001C87.737,235.901,85.885,242.806,88.991,248.187z"/>
<g>
</g>
<g>
</g>
<g>
</g>
<g>
</g>
<g>
</g>
<g>
</g>
<g>
</g>
<g>
</g>
<g>
</g>
<g>
</g>
<g>
</g>
<g>
</g>
<g>
</g>
<g>
</g>
<g>
</g>
</svg>
